<?xml version="1.0" standalone="no"?>
<!DOCTYPE svg PUBLIC "-//W3C//DTD SVG 20010904//EN"
 "http://www.w3.org/TR/2001/REC-SVG-20010904/DTD/svg10.dtd">
<svg version="1.0" xmlns="http://www.w3.org/2000/svg"
 width="1024.000000pt" height="1024.000000pt" viewBox="0 0 1024.000000 1024.000000"
 preserveAspectRatio="xMidYMid meet">
<metadata>
Created by potrace 1.14, written by Peter Selinger 2001-2017
</metadata>
<g transform="translate(0.000000,1024.000000) scale(0.100000,-0.100000)"
fill="#000000" stroke="none">
<path d="M0 5120 l0 -5120 5120 0 5120 0 0 5120 0 5120 -5120 0 -5120 0 0
-5120z m5550 1815 c209 -35 389 -99 536 -190 97 -61 247 -204 311 -297 87
-125 171 -317 189 -427 l6 -36 -264 -49 c-144 -26 -293 -53 -330 -61 l-66 -12
-22 60 c-79 215 -259 376 -490 438 -73 20 -108 23 -245 22 -138 0 -174 -4
-260 -27 -365 -95 -587 -353 -661 -771 -24 -138 -24 -447 -1 -603 66 -429 279
-714 612 -821 219 -71 443 -66 683 14 114 38 287 124 365 181 l47 34 0 210 0
210 -380 0 -380 0 0 280 0 280 720 0 720 0 0 -659 0 -659 -47 -42 c-80 -70
-221 -159 -358 -225 -346 -168 -666 -245 -1015 -245 -610 0 -1099 235 -1382
665 -212 320 -320 774 -289 1206 34 466 187 827 470 1109 253 253 531 382 921
430 112 13 497 4 610 -15z"/>
</g>
</svg>
